<svg width="563" height="492" viewBox="0 0 563 492" fill="none" xmlns="http://www.w3.org/2000/svg">
<path d="M537.315 351.557C528.639 331.822 511.979 315.352 491.956 307.249C471.105 298.803 447.165 301.877 425.206 299.052C406.126 296.593 392.374 288.079 380.988 272.941C370.076 258.437 360.292 242.374 342.468 235.664C328.371 230.365 312.344 231.833 298.333 237.356C272.518 247.536 253.017 269.179 236.594 290.743C221.601 310.431 209.372 331.987 181.638 332.689C153.904 333.391 127.469 317.57 99.5266 321.76C62.5948 327.304 31.8478 358.044 25.3967 394.644C19.356 428.944 34.5153 462.215 60.5501 481.763H508.094C540.901 446.955 558.119 398.874 537.315 351.557Z" fill="#323232"/>
<path d="M132.736 481.758H133.967C142.711 472.073 149.352 460.681 153.471 448.3C160.365 427.813 160.074 406.311 152.654 387.756C148.907 378.397 143.492 369.642 138.254 361.189C132.944 352.617 127.455 343.754 123.729 334.258C122.165 330.242 121.037 326.07 120.366 321.813L119.438 321.701C120.116 326.11 121.274 330.431 122.89 334.589C126.648 344.161 132.16 353.06 137.491 361.664C142.708 370.081 148.1 378.789 151.819 388.091C159.159 406.451 159.444 427.727 152.618 448.012C148.451 460.54 141.675 472.042 132.736 481.758Z" fill="white"/>
<path d="M505.931 442.728C515.151 444.694 524.039 446.454 532.632 447.563C532.779 447.278 532.923 446.994 533.067 446.71C524.402 445.608 515.428 443.83 506.118 441.846C491.935 438.826 476.599 435.553 461.357 435.553C451.932 435.553 442.551 436.81 433.529 440.154C430.099 441.427 426.801 443.029 423.68 444.938C415.537 441.468 407.347 437.677 399.232 433.516C405.117 429.081 411.067 424.761 417.081 420.556C461.72 389.391 502.9 371.723 542.697 366.708L542.449 365.833C502.551 370.873 461.27 388.603 416.566 419.832C410.425 424.12 404.352 428.559 398.343 433.087C389.127 428.349 380.161 423.139 371.481 417.478C355.641 407.11 336.835 392.311 320.397 372.644C384.116 365.498 448.951 356.495 501.914 321.097C503.926 319.754 506.154 318.17 508.462 316.37L507.691 315.834C505.477 317.547 503.346 319.074 501.413 320.348C448.465 355.739 383.494 364.67 319.71 371.827C308.093 357.787 297.714 341.274 290.504 322.17C279.268 292.409 279.862 263.206 292.131 242.046C292.664 241.124 293.211 240.221 293.805 239.324C293.294 239.558 292.786 239.803 292.278 240.044C291.962 240.555 291.653 241.07 291.353 241.589C278.948 262.987 278.329 292.47 289.661 322.486C296.836 341.487 307.121 357.924 318.641 371.942C314.952 372.358 311.263 372.767 307.574 373.17C294.291 374.635 280.575 376.151 267.223 377.85C262.352 378.476 257.402 379.207 252.463 380.125C241.915 357.834 230.32 336.08 215.322 317.432C215.11 317.648 214.89 317.853 214.674 318.066C229.542 336.569 241.069 358.147 251.563 380.28C230.079 384.377 209.217 392.08 198.075 410.008C187.675 426.751 187.682 449.895 198.104 478.796C198.464 479.797 198.834 480.784 199.213 481.758H200.177C199.764 480.679 199.353 479.599 198.95 478.49C188.629 449.859 188.589 426.978 198.842 410.483C209.847 392.768 230.597 385.169 251.959 381.119C255.689 389.006 259.288 396.958 262.867 404.857L263.259 405.717C275.686 433.152 288.542 459.633 305.378 481.758H306.502C289.517 459.594 276.59 432.954 264.08 405.346L263.691 404.486C260.145 396.652 256.574 388.768 252.891 380.949C257.723 380.057 262.579 379.34 267.356 378.725C280.676 377.011 294.413 375.485 307.675 374.045C311.551 373.615 315.437 373.184 319.332 372.752C335.924 392.725 354.971 407.729 370.991 418.216C379.577 423.816 388.442 428.975 397.551 433.674C382.241 445.255 367.351 457.434 352.811 469.335C347.771 473.453 342.685 477.615 337.551 481.773H338.991C343.832 477.844 348.632 473.93 353.391 470.03C368.032 458.053 383.029 445.781 398.448 434.135C406.515 438.282 414.647 442.055 422.762 445.536C411.677 452.585 402.645 463.5 397.181 476.758C396.497 478.418 395.899 480.092 395.348 481.773H396.295C396.817 480.207 397.375 478.645 398.016 477.093C403.491 463.798 412.603 452.894 423.77 445.957C446.421 455.58 468.683 462.722 487.809 468.381L488.529 468.594C496.589 470.977 504.833 473.421 512.127 477.345C512.328 477.111 512.533 476.881 512.739 476.647C505.326 472.625 496.96 470.167 488.785 467.73L488.065 467.517C469.129 461.916 447.126 454.86 424.706 445.381C427.612 443.647 430.67 442.182 433.842 441.004C457.191 432.353 483.086 437.861 505.931 442.728Z" fill="#FFFFF1" fill-opacity="0.5"/>
<path d="M62.7966 384.431C66.7565 400.703 64.9998 418.27 57.9295 432.641C53.3 442.055 46.6149 450.572 38.3818 457.891L38.8786 458.651C47.2485 451.238 54.038 442.595 58.7395 433.041C65.8962 418.486 67.6961 400.692 63.6714 384.218C60.5251 371.349 54.2036 360.459 45.4701 352.561C45.2757 352.787 45.0813 353.018 44.8905 353.248C53.48 361.013 59.6971 371.752 62.7966 384.431Z" fill="#FFFFF1" fill-opacity="0.5"/>
<path d="M266.488 178.312C274.328 186.326 277.842 199.822 273.518 212.267C269.335 224.316 260.159 234.295 249.132 240.706C240.266 245.869 228.696 248.72 219.973 243.313C213.457 239.274 210.077 231.347 209.893 223.679C209.709 216.011 212.283 208.541 215.469 201.568C219.962 191.733 226.01 182.197 235.013 176.217C247.419 167.98 258.953 170.612 266.488 178.312Z" fill="#EAEAEA" fill-opacity="0.75"/>
<path d="M162.561 37.8465H97.6396V8.8418H162.561V37.8465ZM98.9968 36.4965H161.211V10.1918H98.9968V36.4965Z" fill="url(#paint0_linear_788_29196)"/>
<path d="M120.327 65.5809H55.4053V36.5762H120.327V65.5809ZM56.7553 64.2309H118.977V37.9261H56.7553V64.2309Z" fill="url(#paint1_linear_788_29196)"/>
<path d="M531.951 96.4788C527.747 82.5014 520.352 69.6532 509.769 57.9342C499.185 46.2152 484.72 36.5242 466.375 28.8611C448.051 21.2005 424.772 17.3701 396.536 17.3701C374.008 17.3701 351.05 20.4085 327.662 26.4852C304.275 32.5619 283.96 41.2413 266.719 52.5235L289.136 114.082L277.119 123.802L294.546 128.925C311.749 119.923 327.421 113.384 341.561 109.309C355.702 105.234 370.713 103.209 386.593 103.236C402.478 103.236 414.507 107.066 422.679 114.727C430.851 122.388 434.931 131.627 434.919 142.446C434.919 155.526 430.728 167.135 422.348 177.272C413.967 187.41 404.694 197.678 394.527 208.077C387.479 215.277 380.639 222.711 374.008 230.379C367.392 238.038 361.517 246.307 356.462 255.074C351.302 264.038 347.195 273.568 344.222 283.474C341.114 293.619 339.568 304.999 339.585 317.616C339.585 321.687 339.672 326.529 339.909 332.163C339.949 333.204 340.003 334.219 340.068 335.22H323.583L341.561 347.377H428.975C428.494 344.244 428.27 341.078 428.306 337.909V329.776C428.334 321.993 429.91 314.294 432.942 307.126C436.061 299.647 439.946 292.512 444.538 285.836C449.213 279.016 454.418 272.575 460.104 266.572C465.835 260.476 471.355 254.724 476.664 249.314C483.717 242.114 490.996 234.455 498.501 226.336C505.884 218.387 512.536 209.789 518.376 200.647C524.219 191.407 528.992 181.532 532.603 171.214C536.354 160.625 538.237 149.017 538.251 136.391C538.266 123.765 536.166 110.461 531.951 96.4788Z" fill="#0A2DA6"/>
<path d="M368.086 98.9481C352.364 98.9481 337.53 100.908 323.583 104.827C309.637 108.746 294.149 115.073 277.119 123.809L249.619 49.8629C266.64 38.9599 286.714 30.56 309.843 24.6633C332.971 18.7666 355.66 15.8255 377.91 15.8399C405.817 15.8399 428.824 19.5466 446.932 26.9601C465.039 34.3736 479.335 43.7538 489.818 55.1008C500.279 66.455 507.586 78.8892 511.738 92.4034C515.89 105.918 517.963 118.785 517.959 131.006C517.959 143.245 516.099 154.48 512.379 164.708C508.8 174.71 504.081 184.267 498.317 193.191C492.534 202.055 485.96 210.377 478.676 218.056C471.26 225.913 464.06 233.327 457.076 240.296C451.835 245.538 446.381 251.104 440.715 256.996C435.106 262.795 429.963 269.028 425.336 275.637C420.808 282.096 416.973 289.014 413.892 296.275C410.902 303.194 409.344 310.647 409.312 318.184V326.047C409.278 329.114 409.5 332.178 409.975 335.208H323.576C322.635 330.353 322.087 325.429 321.938 320.485C321.701 315.031 321.618 310.347 321.618 306.405C321.618 294.199 323.144 283.185 326.197 273.362C329.145 263.758 333.209 254.534 338.304 245.876C343.312 237.376 349.119 229.372 355.645 221.972C362.187 214.559 368.948 207.366 375.927 200.394C385.963 190.358 395.131 180.43 403.43 170.612C411.729 160.794 415.869 149.56 415.85 136.909C415.85 126.426 411.817 117.478 403.751 110.065C395.684 102.651 383.796 98.9457 368.086 98.9481Z" fill="url(#paint2_linear_788_29196)"/>
<path d="M434.957 432.212C434.957 447.972 429.855 460.139 419.65 468.711C409.446 477.284 397.908 481.576 385.037 481.588C372.147 481.588 360.604 477.296 350.409 468.711C340.214 460.127 335.118 447.96 335.12 432.212C335.12 416.47 340.216 404.304 350.409 395.712C366.116 382.457 389.353 379.512 407.742 388.807C424.071 397.073 434.957 413.827 434.957 432.212Z" fill="#0A2DA6"/>
<path d="M417.858 432.212C417.858 447.973 412.755 460.139 402.551 468.712C392.346 477.284 380.808 481.577 367.937 481.589C355.045 481.589 343.502 477.296 333.309 468.712C323.117 460.127 318.021 447.961 318.021 432.212C318.021 416.471 323.117 404.305 333.309 395.716C343.502 387.126 355.045 382.834 367.937 382.839C380.813 382.839 392.351 387.131 402.551 395.716C412.75 404.301 417.853 416.466 417.858 432.212Z" fill="url(#paint3_linear_788_29196)"/>
<path d="M159.085 208.807C160.043 203.697 156.677 198.778 151.567 197.82C146.457 196.861 141.538 200.227 140.58 205.337C139.621 210.447 142.987 215.367 148.097 216.325C153.207 217.283 158.127 213.917 159.085 208.807Z" fill="#D3DFFF"/>
<path d="M163.565 226.458C164.104 223.583 162.194 220.813 159.3 220.271C156.406 219.729 153.623 221.62 153.084 224.494C152.546 227.369 154.456 230.139 157.35 230.681C160.244 231.223 163.027 229.332 163.565 226.458Z" fill="#D3DFFF"/>
<path d="M152.803 185.869C167.278 171.394 167.278 147.926 152.803 133.451C138.329 118.977 114.86 118.976 100.386 133.451C85.9109 147.926 85.9109 171.394 100.386 185.869C114.86 200.344 138.329 200.344 152.803 185.869Z" fill="#D3DFFF"/>
<path d="M112.361 164.33C114.939 164.33 117.03 162.24 117.03 159.661C117.03 157.083 114.939 154.992 112.361 154.992C109.782 154.992 107.691 157.083 107.691 159.661C107.691 162.24 109.782 164.33 112.361 164.33Z" fill="white"/>
<path d="M126.595 164.33C129.174 164.33 131.264 162.24 131.264 159.661C131.264 157.083 129.174 154.992 126.595 154.992C124.016 154.992 121.926 157.083 121.926 159.661C121.926 162.24 124.016 164.33 126.595 164.33Z" fill="white"/>
<path d="M140.825 164.33C143.404 164.33 145.494 162.24 145.494 159.661C145.494 157.083 143.404 154.992 140.825 154.992C138.247 154.992 136.156 157.083 136.156 159.661C136.156 162.24 138.247 164.33 140.825 164.33Z" fill="white"/>
<path d="M100.042 463.035L103.505 476.387C104.408 479.868 107.774 482.219 111.5 481.967C122.854 481.197 146.448 478.414 159.988 468.431L156.139 449.19C137.521 448.139 120.108 449.19 105.02 454.251C101.258 455.522 99.0732 459.306 100.042 463.035Z" fill="#102048"/>
<path d="M121.743 473.662C121.644 473.662 121.549 473.63 121.47 473.571C121.392 473.512 121.334 473.429 121.307 473.334L116.66 456.684C116.627 456.569 116.642 456.446 116.7 456.342C116.758 456.238 116.856 456.161 116.971 456.128C117.086 456.096 117.209 456.11 117.313 456.169C117.418 456.227 117.495 456.325 117.527 456.44L122.175 473.089C122.191 473.146 122.196 473.206 122.189 473.265C122.182 473.324 122.163 473.381 122.134 473.432C122.105 473.484 122.066 473.529 122.019 473.565C121.972 473.602 121.919 473.628 121.861 473.644C121.823 473.656 121.783 473.662 121.743 473.662Z" fill="white"/>
<path d="M131.79 471.413C131.692 471.412 131.597 471.38 131.519 471.321C131.441 471.262 131.385 471.179 131.358 471.085L126.718 454.435C126.702 454.378 126.697 454.319 126.704 454.26C126.712 454.201 126.73 454.145 126.759 454.093C126.788 454.042 126.827 453.996 126.874 453.96C126.921 453.924 126.974 453.897 127.031 453.881C127.088 453.864 127.147 453.859 127.206 453.866C127.264 453.873 127.321 453.891 127.373 453.92C127.424 453.949 127.47 453.987 127.506 454.034C127.543 454.08 127.57 454.134 127.585 454.191L132.236 470.84C132.252 470.897 132.257 470.957 132.25 471.015C132.242 471.074 132.224 471.131 132.195 471.182C132.166 471.234 132.127 471.279 132.08 471.315C132.033 471.352 131.98 471.379 131.923 471.395C131.88 471.409 131.835 471.415 131.79 471.413Z" fill="white"/>
<path d="M143.464 390.864L100.189 403.708L132.326 447.739L178.463 451.407L242.099 424.498L217.918 388.113L143.464 390.864Z" fill="#FBC343"/>
<path d="M196.811 396.98C291.849 368.846 307.113 452.836 158.842 468.125C153.605 462.232 147.485 452.005 145.055 443.459L223.353 407.276L196.811 396.98Z" fill="#FBC343"/>
<path d="M200.847 457.171C196.404 455.731 192.146 452.938 192.146 452.938L176.871 457.729L180.37 474.343L196.239 477.565C201.07 468.712 201.351 461.466 200.847 457.171Z" fill="#F9B384"/>
<path d="M145.393 444.042L144.713 442.876C161.049 433.379 202.892 410.573 238.538 403.849L238.79 405.173C203.345 411.862 161.669 434.581 145.393 444.042Z" fill="#E49B31"/>
<path d="M143.464 390.864C55.0094 374.034 32.0994 459.054 180.356 474.343C185.867 468.203 189.896 460.88 192.131 452.938C169.354 437.699 143.892 423.213 115.978 409.415L143.464 390.864Z" fill="#FBC343"/>
<path d="M191.783 453.506C187.574 450.828 183.19 447.998 178.549 445C155.247 429.955 128.838 412.913 106.399 403.193L106.936 401.955C129.475 411.725 155.935 428.807 179.295 443.88C183.935 446.875 188.316 449.705 192.521 452.383L191.783 453.506Z" fill="#E49B31"/>
<path d="M78.5648 433.012L77.3984 432.354C80.7176 426.342 86.0383 422.274 93.2058 420.305L93.5658 421.604C86.6503 423.523 81.7472 427.253 78.5648 433.012Z" fill="#E49B31"/>
<path d="M263.18 427.896C259.998 422.136 255.098 418.403 248.197 416.491L248.557 415.191C255.725 417.175 261.042 421.232 264.365 427.24L263.18 427.896Z" fill="#E49B31"/>
<path d="M172.076 473.594L171.09 472.672C178.167 465.112 182.512 457.095 184.377 448.218L185.698 448.495C183.794 457.621 179.337 465.832 172.076 473.594Z" fill="#E49B31"/>
<path d="M244.961 452.225C233.628 445.223 211.658 457.319 206.143 457.931C204.537 458.111 202.676 457.758 200.847 457.171C201.351 461.466 201.07 468.724 196.239 477.565L198.932 478.112C198.932 478.112 217.562 484.952 237.325 480.967C255.57 477.299 253.871 457.729 244.961 452.225Z" fill="#102048"/>
<path d="M229.513 475.124C229.469 475.13 229.424 475.13 229.38 475.124C229.324 475.107 229.271 475.078 229.226 475.04C229.18 475.002 229.143 474.956 229.115 474.903C229.088 474.851 229.071 474.793 229.066 474.734C229.061 474.675 229.067 474.616 229.085 474.559C230.431 470.293 231.018 461.909 227.119 456.275C227.085 456.225 227.061 456.17 227.048 456.111C227.036 456.052 227.035 455.991 227.046 455.931C227.056 455.872 227.079 455.815 227.112 455.765C227.144 455.714 227.187 455.67 227.236 455.636C227.286 455.602 227.342 455.578 227.401 455.565C227.46 455.552 227.521 455.551 227.58 455.562C227.64 455.573 227.696 455.595 227.747 455.628C227.797 455.661 227.841 455.703 227.875 455.753C231.958 461.65 231.357 470.387 229.96 474.833C229.926 474.922 229.864 474.999 229.784 475.051C229.704 475.103 229.609 475.129 229.513 475.124Z" fill="white"/>
<path d="M220.629 476.812C220.582 476.813 220.536 476.805 220.492 476.791C220.378 476.754 220.283 476.675 220.228 476.569C220.173 476.463 220.161 476.34 220.197 476.226C221.543 471.963 222.133 463.575 218.231 457.945C218.163 457.847 218.136 457.725 218.158 457.608C218.179 457.49 218.246 457.385 218.344 457.317C218.443 457.249 218.564 457.222 218.682 457.244C218.8 457.265 218.904 457.332 218.973 457.43C223.055 463.331 222.457 472.064 221.057 476.51C221.026 476.599 220.968 476.676 220.891 476.73C220.814 476.784 220.723 476.813 220.629 476.812Z" fill="white"/>
<path d="M127.815 281.26C127.815 281.26 150.092 262.317 149.267 258.717C148.677 256.143 142.366 259.916 142.366 259.916C142.366 259.916 151.215 249.415 150.765 248.14C149.962 245.862 143.842 250.11 143.842 250.11C143.842 250.11 147.978 244.155 146.002 243.183C144.026 242.211 139.709 245.883 139.709 245.883C139.709 245.883 142.229 242.579 141.045 241.711C139.861 240.843 134.756 244.411 134.756 244.411C134.756 244.411 136.588 240.242 132.697 241.823C128.805 243.403 101.507 268.462 101.507 268.462L127.815 281.26Z" fill="#F9B384"/>
<path d="M136.93 258.793C136.817 258.793 136.707 258.751 136.624 258.674C132.801 255.178 131.116 254.332 126.904 253.033C126.793 252.995 126.701 252.916 126.647 252.812C126.594 252.708 126.583 252.587 126.617 252.475C126.652 252.363 126.728 252.268 126.831 252.212C126.933 252.156 127.054 252.141 127.167 252.172C131.541 253.519 133.287 254.397 137.247 258.008C137.315 258.069 137.362 258.149 137.384 258.238C137.405 258.326 137.399 258.419 137.366 258.504C137.333 258.59 137.275 258.663 137.2 258.714C137.125 258.766 137.036 258.793 136.944 258.793H136.93Z" fill="#E28B6D"/>
<path d="M130.216 269.067H130.155C130.036 269.05 129.929 268.987 129.857 268.891C129.785 268.795 129.753 268.675 129.77 268.556C130.209 265.424 131.21 263.469 132.787 262.573C134.144 261.809 135.915 261.889 138.046 262.807C138.102 262.829 138.153 262.862 138.196 262.905C138.239 262.947 138.272 262.998 138.295 263.054C138.318 263.109 138.329 263.169 138.329 263.229C138.328 263.29 138.315 263.349 138.291 263.404C138.267 263.46 138.232 263.509 138.188 263.551C138.145 263.592 138.093 263.625 138.037 263.646C137.98 263.667 137.92 263.676 137.86 263.674C137.8 263.671 137.741 263.657 137.686 263.631C135.829 262.832 134.327 262.738 133.226 263.357C131.915 264.095 131.066 265.877 130.663 268.682C130.646 268.789 130.592 268.886 130.511 268.957C130.429 269.027 130.324 269.066 130.216 269.067Z" fill="#E28B6D"/>
<path d="M129.165 250.128C129.075 250.127 128.988 250.1 128.913 250.049C128.839 249.998 128.782 249.926 128.749 249.843C128.716 249.759 128.709 249.667 128.729 249.579C128.748 249.492 128.794 249.412 128.859 249.35L134.446 244.076C134.489 244.036 134.54 244.004 134.595 243.983C134.651 243.962 134.71 243.952 134.769 243.953C134.828 243.955 134.886 243.968 134.94 243.992C134.994 244.017 135.043 244.051 135.084 244.094C135.124 244.137 135.156 244.188 135.177 244.243C135.198 244.298 135.208 244.357 135.207 244.417C135.205 244.476 135.192 244.534 135.167 244.588C135.143 244.642 135.109 244.691 135.066 244.731L129.475 249.998C129.393 250.08 129.281 250.127 129.165 250.128Z" fill="#E28B6D"/>
<path d="M134.341 251.928C134.253 251.927 134.168 251.901 134.094 251.853C134.021 251.804 133.964 251.735 133.93 251.654C133.895 251.574 133.885 251.485 133.901 251.398C133.916 251.312 133.957 251.232 134.017 251.168L139.385 245.574C139.467 245.487 139.581 245.437 139.7 245.435C139.82 245.432 139.935 245.477 140.022 245.559C140.108 245.642 140.158 245.756 140.161 245.875C140.164 245.995 140.119 246.11 140.036 246.197L134.665 251.791C134.623 251.834 134.572 251.868 134.517 251.892C134.461 251.915 134.401 251.927 134.341 251.928Z" fill="#E28B6D"/>
<path d="M139.63 255.078C139.542 255.08 139.455 255.055 139.38 255.008C139.306 254.96 139.247 254.892 139.211 254.811C139.176 254.73 139.165 254.64 139.181 254.553C139.196 254.466 139.237 254.386 139.299 254.322L143.511 249.804C143.593 249.722 143.704 249.676 143.82 249.674C143.936 249.672 144.048 249.715 144.133 249.794C144.218 249.873 144.27 249.982 144.276 250.098C144.283 250.214 144.245 250.328 144.169 250.416L139.958 254.937C139.915 254.982 139.864 255.017 139.808 255.041C139.752 255.065 139.691 255.078 139.63 255.078Z" fill="#E28B6D"/>
<path d="M211.963 407.96L130.514 411.114L121.515 336.865C121.515 336.865 148.784 311.003 159.274 301.481L176.983 300.57C231.928 325.543 222.932 356.755 211.963 407.96Z" fill="#3A6BEA"/>
<path d="M176.983 300.566C176.983 300.566 239.846 305.945 259.663 349.011C279.056 391.155 199.364 406.16 199.364 406.16L176.983 300.566Z" fill="#3A6BEA"/>
<path d="M105.117 309.797L131.094 278.186L106.802 263.462C96.6791 270.507 77.0846 286.469 60.4781 304.555C56.8134 308.548 53.9514 313.195 52.5078 318.336C51.3027 322.538 51.0421 326.955 51.7446 331.27C53.5446 342.308 62.2277 350.822 73.8159 352.179C83.7121 353.338 121.515 350.379 152.115 341.379L161.114 306.643C156.492 304.001 122.12 303.547 105.117 309.797Z" fill="#3A6BEA"/>
<g opacity="0.8">
<path d="M229.445 317.659L229.852 317.566C229.568 317.396 229.283 317.234 228.995 317.069C224.391 318.149 219.635 319.229 214.956 319.78C212.14 320.118 202.716 320.741 199.98 314.473C198.612 311.352 199.649 307.885 201.197 305.452L200.516 305.275C198.929 307.853 197.913 311.471 199.357 314.761C202.291 321.457 212.097 320.82 215.028 320.467C219.851 319.87 224.729 318.746 229.445 317.659Z" fill="white"/>
<path d="M258.781 366.233C255.779 365.074 252.662 363.875 249.422 364.181C243.701 364.721 238.805 370.38 238.507 376.781C238.305 381.155 239.975 385.738 243.161 389.77L243.734 389.41C240.62 385.493 238.985 381.047 239.183 376.81C239.464 370.719 244.086 365.351 249.486 364.84C252.586 364.552 255.48 365.664 258.544 366.849C259.624 367.274 260.751 367.698 261.881 368.058C261.939 367.842 261.996 367.623 262.05 367.403C260.941 367.065 259.854 366.647 258.781 366.233Z" fill="white"/>
<path d="M100.115 344.766C96.1906 341.526 90.0923 340.655 83.3892 342.386C77.4134 343.931 72.2834 346.994 68.7627 351.026C68.9931 351.102 69.2199 351.188 69.4539 351.257C72.881 347.412 77.8165 344.507 83.5548 343.024C90.0347 341.342 95.9278 342.163 99.6862 345.27C101.414 346.756 102.771 348.627 103.646 350.731L104.344 350.652C103.423 348.381 101.973 346.363 100.115 344.766Z" fill="white"/>
<path d="M64.6367 300.124C71.9878 298.298 79.1661 295.732 85.7828 291.919C88.3027 290.479 91.1107 288.64 93.0942 285.943C95.2074 283.063 95.9094 279.658 94.9734 276.807C94.6055 275.712 93.9766 274.724 93.141 273.927L92.6226 274.352C93.4041 275.089 93.9915 276.008 94.3326 277.026C95.2002 279.669 94.5342 282.858 92.5326 285.551C90.6211 288.147 87.8707 289.936 85.43 291.34C79.1877 294.94 72.4342 297.424 65.4971 299.22C65.2199 299.515 64.9283 299.821 64.6367 300.124Z" fill="white"/>
</g>
<path d="M182.736 284.061V285.213L182.542 303.116L182.52 305.056C182.384 307.921 181.15 310.623 179.074 312.602C176.999 314.581 174.241 315.686 171.373 315.686C168.505 315.686 165.747 314.581 163.672 312.602C161.596 310.623 160.362 307.921 160.226 305.056L160.01 282.931L182.736 284.061Z" fill="#F9B384"/>
<path d="M182.725 285.213L182.542 303.115C172.595 299.065 168.502 288.294 168.502 288.294L182.725 285.213Z" fill="#102048"/>
<path d="M186.663 253.973C190.227 258.25 200.638 282.499 190.087 290.771C178.207 300.077 160.132 284.781 160.132 284.781L157.709 256.54L173.398 252.403L186.663 253.973Z" fill="#F9B384"/>
<path d="M149.717 252.417C149.717 252.417 114.916 270.564 143.277 322.882C146.92 329.603 154.994 332.537 161.899 329.258C163.651 328.425 165.212 327.24 166.486 325.777C167.759 324.314 168.717 322.605 169.301 320.755C169.884 318.905 170.08 316.955 169.876 315.026C169.672 313.098 169.073 311.231 168.116 309.544C163.476 301.301 158.998 290.684 160.916 282.782L149.717 252.417Z" fill="#102048"/>
<path d="M159.657 267.666C163.334 263.99 163.334 258.03 159.657 254.353C155.981 250.677 150.02 250.677 146.344 254.353C142.668 258.03 142.668 263.99 146.344 267.666C150.02 271.343 155.981 271.343 159.657 267.666Z" fill="#FBC343"/>
<path d="M164.581 272.318C163.566 266.447 162.947 262.418 168.879 259.391C168.879 259.391 189.799 263.196 193.795 255.305C197.79 247.414 191.703 234.954 178.959 243.609C146.347 237.237 141.973 267.761 151.862 277.934L161.636 276.436C162.101 276.362 162.547 276.196 162.948 275.949C163.348 275.701 163.696 275.376 163.97 274.993C164.243 274.61 164.439 274.176 164.544 273.717C164.649 273.258 164.661 272.782 164.581 272.318Z" fill="#102048"/>
<path d="M180.777 273.725C181.545 273.725 182.167 273.103 182.167 272.336C182.167 271.568 181.545 270.946 180.777 270.946C180.01 270.946 179.388 271.568 179.388 272.336C179.388 273.103 180.01 273.725 180.777 273.725Z" fill="#102048"/>
<path d="M190.191 269.089C190.959 269.089 191.581 268.467 191.581 267.699C191.581 266.932 190.959 266.31 190.191 266.31C189.424 266.31 188.802 266.932 188.802 267.699C188.802 268.467 189.424 269.089 190.191 269.089Z" fill="#102048"/>
<path d="M189.23 276.616C189.128 276.615 189.031 276.577 188.956 276.508C188.883 276.434 188.841 276.334 188.841 276.229C188.841 276.125 188.883 276.024 188.956 275.95C189.511 275.363 190.123 274.539 189.867 273.938C189.611 273.337 188.474 273.049 187.955 273.049C186.847 273.049 186.314 271.076 186.22 270.68C186.207 270.63 186.205 270.577 186.212 270.526C186.22 270.475 186.237 270.426 186.264 270.382C186.291 270.337 186.327 270.299 186.368 270.269C186.41 270.238 186.458 270.216 186.508 270.205C186.559 270.192 186.611 270.19 186.662 270.198C186.713 270.206 186.762 270.224 186.807 270.251C186.851 270.278 186.889 270.314 186.919 270.356C186.95 270.398 186.972 270.446 186.983 270.496C187.185 271.328 187.646 272.264 187.955 272.264C188.488 272.264 190.115 272.512 190.591 273.628C190.951 274.424 190.591 275.389 189.511 276.508C189.435 276.58 189.334 276.618 189.23 276.616Z" fill="#102048"/>
<path d="M189.301 281.894C189.222 281.894 189.144 281.87 189.078 281.825C186.461 280.058 183.819 281.541 183.79 281.555C183.7 281.596 183.598 281.602 183.504 281.572C183.41 281.542 183.331 281.478 183.282 281.392C183.233 281.307 183.218 281.206 183.239 281.109C183.26 281.013 183.317 280.928 183.397 280.871C183.523 280.799 186.5 279.133 189.517 281.174C189.586 281.222 189.637 281.29 189.664 281.369C189.691 281.448 189.693 281.534 189.668 281.613C189.644 281.693 189.595 281.763 189.529 281.814C189.462 281.864 189.381 281.892 189.298 281.894H189.301Z" fill="#102048"/>
<path d="M180.17 266.313C180.962 267.8 179.583 268.113 177.967 268.959C176.35 269.805 174.698 270.129 174.32 269.42C173.942 268.71 174.946 267.44 176.563 266.579C178.179 265.719 179.558 265.161 180.17 266.313Z" fill="#102048"/>
<path d="M186.059 263.624C186.419 264.952 187.398 264.372 188.841 263.984C190.285 263.595 191.448 262.882 191.282 262.249C191.116 261.615 189.813 261.406 188.37 261.784C186.926 262.162 185.792 262.594 186.059 263.624Z" fill="#102048"/>
<path opacity="0.4" d="M177.144 281.812C178.808 280.277 178.913 277.683 177.377 276.018C175.842 274.354 173.248 274.249 171.583 275.784C169.919 277.32 169.814 279.914 171.349 281.578C172.885 283.243 175.479 283.347 177.144 281.812Z" fill="#EB5D60"/>
<path d="M163.782 282.708C165.656 280.28 164.939 276.585 162.18 274.455C159.421 272.326 155.665 272.569 153.79 274.997C151.916 277.426 152.633 281.121 155.392 283.25C158.151 285.38 161.908 285.137 163.782 282.708Z" fill="#F9B384"/>
<path d="M161.229 280.896C161.177 280.897 161.126 280.887 161.078 280.867C161.03 280.848 160.986 280.819 160.949 280.782C160.913 280.746 160.883 280.703 160.863 280.655C160.843 280.607 160.833 280.556 160.833 280.504C160.837 279.936 160.701 279.376 160.436 278.874C160.172 278.371 159.788 277.942 159.318 277.624C158.949 277.356 158.52 277.183 158.068 277.121C157.617 277.058 157.157 277.107 156.729 277.264C156.637 277.288 156.539 277.278 156.454 277.236C156.369 277.193 156.302 277.121 156.266 277.033C156.23 276.945 156.227 276.847 156.258 276.757C156.289 276.667 156.351 276.591 156.434 276.544C156.98 276.336 157.569 276.265 158.148 276.339C158.728 276.412 159.28 276.627 159.757 276.965C160.334 277.354 160.806 277.88 161.131 278.495C161.456 279.111 161.625 279.797 161.622 280.493C161.623 280.545 161.614 280.598 161.595 280.646C161.576 280.695 161.547 280.74 161.51 280.777C161.474 280.815 161.43 280.845 161.382 280.865C161.334 280.886 161.282 280.896 161.229 280.896Z" fill="#102048"/>
<path d="M104.801 309.482L90.5938 324.852L91.2546 325.462L105.462 310.093L104.801 309.482Z" fill="#102048"/>
<path d="M204.897 375.546L204.634 374.686C214.976 371.532 225.017 367.76 234.114 356.384L234.816 356.945C225.557 368.523 215.38 372.35 204.897 375.546Z" fill="#102048"/>
<path d="M211.186 340.691H123.196C120.032 340.691 117.465 343.467 117.465 346.89V409.713C117.465 413.137 120.032 415.912 123.196 415.912H211.186C214.35 415.912 216.913 413.137 216.913 409.713V346.89C216.913 343.467 214.35 340.691 211.186 340.691Z" fill="#D3DFFF"/>
<path d="M171.835 374.333C172.001 374.34 172.159 374.412 172.272 374.534C172.385 374.656 172.446 374.818 172.44 374.985V381.619C172.446 381.786 172.385 381.949 172.272 382.071C172.159 382.194 172.002 382.267 171.835 382.275H162.547C162.38 382.268 162.222 382.195 162.108 382.073C161.994 381.95 161.933 381.787 161.939 381.619V374.985C161.934 374.818 161.995 374.656 162.109 374.534C162.223 374.412 162.38 374.34 162.547 374.333H171.835ZM171.835 372.533H162.547C162.228 372.536 161.913 372.602 161.619 372.726C161.325 372.851 161.059 373.033 160.835 373.26C160.612 373.488 160.435 373.757 160.315 374.053C160.196 374.349 160.136 374.666 160.139 374.985V381.619C160.133 382.264 160.383 382.885 160.835 383.345C161.287 383.806 161.902 384.068 162.547 384.075H171.835C172.479 384.067 173.094 383.804 173.545 383.344C173.996 382.884 174.245 382.264 174.24 381.619V374.985C174.245 374.341 173.995 373.721 173.545 373.261C173.094 372.802 172.479 372.54 171.835 372.533Z" fill="#1F3C88"/>
<path d="M552.676 480.859H22.1602V482.659H552.676V480.859Z" fill="#102048"/>
<defs>
<linearGradient id="paint0_linear_788_29196" x1="97.6396" y1="23.3441" x2="162.561" y2="23.3441" gradientUnits="userSpaceOnUse">
<stop stop-color="#1BB0BE"/>
<stop offset="1" stop-color="#2958FF"/>
</linearGradient>
<linearGradient id="paint1_linear_788_29196" x1="55.4053" y1="51.0785" x2="120.327" y2="51.0785" gradientUnits="userSpaceOnUse">
<stop stop-color="#1BB0BE"/>
<stop offset="1" stop-color="#2958FF"/>
</linearGradient>
<linearGradient id="paint2_linear_788_29196" x1="249.619" y1="175.524" x2="517.959" y2="175.524" gradientUnits="userSpaceOnUse">
<stop stop-color="#1BB0BE"/>
<stop offset="1" stop-color="#2958FF"/>
</linearGradient>
<linearGradient id="paint3_linear_788_29196" x1="318.021" y1="432.214" x2="417.858" y2="432.214" gradientUnits="userSpaceOnUse">
<stop stop-color="#1BB0BE"/>
<stop offset="1" stop-color="#2958FF"/>
</linearGradient>
</defs>
</svg>
