<svg width="37" height="26" viewBox="0 0 37 26" fill="none" xmlns="http://www.w3.org/2000/svg">
<path d="M5.1468 0.225586C4.89201 0.226607 4.64461 0.311317 4.44266 0.466683C4.24072 0.622049 4.09542 0.839464 4.02911 1.08548L0.542504 13.8567C0.495384 14.0292 0.48874 14.2103 0.523091 14.3858C0.557442 14.5613 0.63186 14.7265 0.740543 14.8685C0.849227 15.0105 0.989238 15.1255 1.14966 15.2045C1.31009 15.2835 1.48659 15.3244 1.66542 15.324H35.3412C35.5196 15.3237 35.6956 15.2822 35.8554 15.2029C36.0153 15.1236 36.1547 15.0085 36.2628 14.8666C36.371 14.7247 36.445 14.5598 36.4791 14.3846C36.5132 14.2095 36.5065 14.0289 36.4595 13.8567L32.9735 1.08548C32.9073 0.839271 32.762 0.621675 32.5599 0.46627C32.3578 0.310864 32.1101 0.226286 31.8552 0.225586H5.1468Z" fill="#B3E2FF"/>
<path d="M18.5015 0.225586V15.324H35.3417C35.5201 15.3237 35.6961 15.2822 35.8559 15.2029C36.0157 15.1236 36.1552 15.0085 36.2633 14.8666C36.3715 14.7247 36.4455 14.5598 36.4796 14.3846C36.5137 14.2095 36.507 14.0289 36.4599 13.8567L32.9739 1.08548C32.9078 0.839271 32.7624 0.621675 32.5603 0.46627C32.3582 0.310864 32.1106 0.226286 31.8557 0.225586H18.5015Z" fill="#90D6FF"/>
<path d="M1.66502 13.0015C1.5125 13.0011 1.36141 13.0308 1.22037 13.0888C1.07933 13.1469 0.951116 13.2321 0.843054 13.3398C0.734993 13.4474 0.649204 13.5753 0.590591 13.7161C0.531979 13.8569 0.501693 14.0079 0.501465 14.1604V24.6161C0.501465 25.2577 1.02286 25.7774 1.66502 25.775H35.3408C35.6481 25.7749 35.9428 25.6527 36.1601 25.4354C36.3774 25.2181 36.4996 24.9234 36.4997 24.6161V14.1604C36.4994 13.8531 36.3772 13.5585 36.16 13.3412C35.9427 13.124 35.6481 13.0018 35.3408 13.0015H1.66502Z" fill="#008BFC"/>
<path d="M18.5015 13.0015V25.775H35.3417C35.649 25.7749 35.9437 25.6527 36.161 25.4354C36.3783 25.2181 36.5004 24.9234 36.5006 24.6161V14.1604C36.5003 13.8531 36.3781 13.5585 36.1608 13.3412C35.9435 13.124 35.649 13.0018 35.3417 13.0015H18.5015Z" fill="#0070F0"/>
<path d="M30.6965 19.971C30.5438 19.9704 30.3925 19.9999 30.2512 20.0578C30.1099 20.1158 29.9815 20.201 29.8732 20.3086C29.7649 20.4163 29.6789 20.5442 29.6201 20.6851C29.5613 20.8261 29.5309 20.9772 29.5306 21.1299C29.5329 21.7715 30.052 22.2911 30.6965 22.2911H31.8554C32.1631 22.2911 32.4581 22.1689 32.6757 21.9513C32.8932 21.7338 33.0155 21.4387 33.0155 21.1311C33.0155 20.8234 32.8932 20.5283 32.6757 20.3108C32.4581 20.0932 32.1631 19.971 31.8554 19.971H30.6965ZM30.6965 16.485C30.388 16.4846 30.092 16.6067 29.8734 16.8244C29.6548 17.0422 29.5315 17.3377 29.5306 17.6462C29.5309 17.7989 29.5613 17.95 29.6201 18.0909C29.6789 18.2319 29.7649 18.3598 29.8732 18.4674C29.9815 18.5751 30.1099 18.6603 30.2512 18.7183C30.3925 18.7762 30.5438 18.8057 30.6965 18.8051H31.8554C32.0108 18.81 32.1657 18.7837 32.3107 18.7276C32.4557 18.6715 32.588 18.5868 32.6997 18.4786C32.8114 18.3704 32.9002 18.2409 32.9609 18.0977C33.0215 17.9545 33.0527 17.8005 33.0527 17.645C33.0527 17.4895 33.0215 17.3356 32.9609 17.1924C32.9002 17.0492 32.8114 16.9197 32.6997 16.8114C32.588 16.7032 32.4557 16.6186 32.3107 16.5625C32.1657 16.5064 32.0108 16.48 31.8554 16.485H30.6965ZM26.0492 19.971C25.8967 19.9707 25.7457 20.0004 25.6047 20.0585C25.4636 20.1166 25.3355 20.2018 25.2274 20.3095C25.1194 20.4171 25.0336 20.5449 24.9749 20.6857C24.9163 20.8265 24.886 20.9774 24.8857 21.1299C24.888 21.7715 25.4071 22.2911 26.0492 22.2911H27.2104C27.5181 22.2911 27.8132 22.1689 28.0307 21.9513C28.2483 21.7338 28.3705 21.4387 28.3705 21.1311C28.3705 20.8234 28.2483 20.5283 28.0307 20.3108C27.8132 20.0932 27.5181 19.971 27.2104 19.971H26.0492ZM26.0492 16.485C25.4076 16.485 24.888 17.0046 24.8857 17.6462C24.888 18.2878 25.4071 18.8074 26.0492 18.8051H27.2104C27.3659 18.81 27.5207 18.7837 27.6658 18.7276C27.8108 18.6715 27.9431 18.5868 28.0548 18.4786C28.1665 18.3704 28.2553 18.2409 28.3159 18.0977C28.3766 17.9545 28.4078 17.8005 28.4078 17.645C28.4078 17.4895 28.3766 17.3356 28.3159 17.1924C28.2553 17.0492 28.1665 16.9197 28.0548 16.8114C27.9431 16.7032 27.8108 16.6186 27.6658 16.5625C27.5207 16.5064 27.3659 16.48 27.2104 16.485H26.0492ZM21.4043 19.971C21.2518 19.9707 21.1007 20.0004 20.9597 20.0585C20.8187 20.1166 20.6905 20.2018 20.5825 20.3095C20.4744 20.4171 20.3886 20.5449 20.33 20.6857C20.2714 20.8265 20.241 20.9774 20.2407 21.1299C20.243 21.7715 20.7621 22.2911 21.4043 22.2911H22.5655C22.8732 22.2911 23.1683 22.1689 23.3858 21.9513C23.6034 21.7338 23.7256 21.4387 23.7256 21.1311C23.7256 20.8234 23.6034 20.5283 23.3858 20.3108C23.1683 20.0932 22.8732 19.971 22.5655 19.971H21.4043ZM21.4043 16.485C20.7627 16.485 20.243 17.0046 20.2407 17.6462C20.243 18.2878 20.7621 18.8074 21.4043 18.8051H22.5655C22.7209 18.81 22.8758 18.7837 23.0208 18.7276C23.1659 18.6715 23.2982 18.5868 23.4098 18.4786C23.5215 18.3704 23.6103 18.2409 23.671 18.0977C23.7316 17.9545 23.7629 17.8005 23.7629 17.645C23.7629 17.4895 23.7316 17.3356 23.671 17.1924C23.6103 17.0492 23.5215 16.9197 23.4098 16.8114C23.2982 16.7032 23.1659 16.6186 23.0208 16.5625C22.8758 16.5064 22.7209 16.48 22.5655 16.485H21.4043Z" fill="#B3E2FF"/>
<path d="M14.4365 19.9714C14.281 19.9665 14.1262 19.9928 13.9811 20.0489C13.8361 20.105 13.7038 20.1897 13.5921 20.2979C13.4804 20.4061 13.3916 20.5356 13.331 20.6788C13.2703 20.822 13.2391 20.9759 13.2391 21.1314C13.2391 21.287 13.2703 21.4409 13.331 21.5841C13.3916 21.7273 13.4804 21.8568 13.5921 21.965C13.7038 22.0732 13.8361 22.1579 13.9811 22.214C14.1262 22.2701 14.281 22.2964 14.4365 22.2915H15.5954C16.2375 22.2915 16.7589 21.7719 16.7589 21.1303C16.7589 20.4887 16.2375 19.9691 15.5954 19.9714H14.4365ZM14.4365 16.4854C14.1288 16.4854 13.8337 16.6076 13.6162 16.8251C13.3986 17.0427 13.2764 17.3378 13.2764 17.6454C13.2764 17.9531 13.3986 18.2482 13.6162 18.4657C13.8337 18.6833 14.1288 18.8055 14.4365 18.8055H15.5954C16.2375 18.8078 16.7589 18.2882 16.7589 17.6466C16.7589 17.005 16.2375 16.4854 15.5954 16.4854H14.4365ZM9.79152 19.9714C9.63609 19.9665 9.48125 19.9928 9.33621 20.0489C9.19116 20.105 9.05887 20.1897 8.94719 20.2979C8.8355 20.4061 8.7467 20.5356 8.68605 20.6788C8.62541 20.822 8.59416 20.9759 8.59416 21.1314C8.59416 21.287 8.62541 21.4409 8.68605 21.5841C8.7467 21.7273 8.8355 21.8568 8.94719 21.965C9.05887 22.0732 9.19116 22.1579 9.33621 22.214C9.48125 22.2701 9.63609 22.2964 9.79152 22.2915H10.9551C11.2564 22.282 11.5422 22.1556 11.7519 21.9391C11.9617 21.7226 12.079 21.4329 12.079 21.1314C12.079 20.83 11.9617 20.5403 11.7519 20.3238C11.5422 20.1073 11.2564 19.9809 10.9551 19.9714H9.79152ZM9.79152 16.4854C9.48385 16.4854 9.18878 16.6076 8.97122 16.8251C8.75367 17.0427 8.63144 17.3378 8.63144 17.6454C8.63144 17.9531 8.75367 18.2482 8.97122 18.4657C9.18878 18.6833 9.48385 18.8055 9.79152 18.8055H10.9551C11.2627 18.8055 11.5578 18.6833 11.7754 18.4657C11.9929 18.2482 12.1151 17.9531 12.1151 17.6454C12.1151 17.3378 11.9929 17.0427 11.7754 16.8251C11.5578 16.6076 11.2627 16.4854 10.9551 16.4854H9.79152ZM5.14658 19.9714C4.99115 19.9665 4.83631 19.9928 4.69127 20.0489C4.54623 20.105 4.41394 20.1897 4.30225 20.2979C4.19056 20.4061 4.10176 20.5356 4.04111 20.6788C3.98047 20.822 3.94922 20.9759 3.94922 21.1314C3.94922 21.287 3.98047 21.4409 4.04111 21.5841C4.10176 21.7273 4.19056 21.8568 4.30225 21.965C4.41394 22.0732 4.54623 22.1579 4.69127 22.214C4.83631 22.2701 4.99115 22.2964 5.14658 22.2915H6.31014C6.61145 22.282 6.89724 22.1556 7.10701 21.9391C7.31678 21.7226 7.43408 21.4329 7.43408 21.1314C7.43408 20.83 7.31678 20.5403 7.10701 20.3238C6.89724 20.1073 6.61145 19.9809 6.31014 19.9714H5.14658ZM5.14658 16.4854C4.83891 16.4854 4.54384 16.6076 4.32628 16.8251C4.10873 17.0427 3.98651 17.3378 3.98651 17.6454C3.98651 17.9531 4.10873 18.2482 4.32628 18.4657C4.54384 18.6833 4.83891 18.8055 5.14658 18.8055H6.31014C6.61781 18.8055 6.91288 18.6833 7.13043 18.4657C7.34799 18.2482 7.47021 17.9531 7.47021 17.6454C7.47021 17.3378 7.34799 17.0427 7.13043 16.8251C6.91288 16.6076 6.61781 16.4854 6.31014 16.4854H5.14658Z" fill="#DCF2FA"/>
</svg>
