<?xml version="1.0" encoding="utf-8"?>
<!-- Generator: Adobe Illustrator 25.2.0, SVG Export Plug-In . SVG Version: 6.00 Build 0)  -->
<svg version="1.1" id="Layer_1" xmlns="http://www.w3.org/2000/svg" xmlns:xlink="http://www.w3.org/1999/xlink" x="0px" y="0px"
	 viewBox="0 0 50.5 66.5" style="enable-background:new 0 0 50.5 66.5;" xml:space="preserve">
<style type="text/css">
	.st0{fill:#FDD10E;}
</style>
<path class="st0" d="M50.1,53.9c-0.6-0.6-1.5-0.6-2.1,0l-7.5,7.5V26c0-11.8-9.6-21.5-21.5-21.5h-7.2C11.1,1.9,8.8,0,6,0
	C2.7,0,0,2.7,0,6s2.7,6,6,6c2.8,0,5.1-1.9,5.8-4.5H19c10.2,0,18.5,8.3,18.5,18.5v35.3L30,53.9c-0.6-0.6-1.5-0.6-2.1,0
	s-0.6,1.5,0,2.1L38,66.1c0.3,0.3,0.7,0.4,1.1,0.4s0.8-0.1,1.1-0.4l10-10C50.7,55.5,50.7,54.5,50.1,53.9z M6,9C4.3,9,3,7.7,3,6
	s1.3-3,3-3s3,1.3,3,3S7.7,9,6,9z"/>
</svg>
