<?xml version="1.0" encoding="utf-8"?>
<!-- Generator: Adobe Illustrator 25.2.0, SVG Export Plug-In . SVG Version: 6.00 Build 0)  -->
<svg version="1.1" id="Layer_1" xmlns="http://www.w3.org/2000/svg" xmlns:xlink="http://www.w3.org/1999/xlink" x="0px" y="0px"
	 viewBox="0 0 361.16 454.55" fill="#fff" style="enable-background:new 0 0 361.16 454.55;" xml:space="preserve">
<path d="M304.94,141.85c-9.9,1.84-17.91,6.73-24.99,13.23c-14.43,13.25-22.72,30.14-28.32,48.56c-4.54,14.92-6.49,30.26-6.72,45.79
	c-0.25,16.33-0.09,32.67-0.08,49c0,0.98,0.19,1.95,0.38,3.74c2.98,0,5.9-0.02,8.82,0c8.84,0.08,13.38,4.64,13.46,13.58
	c0.05,5.67,0.03,11.33,0.03,17c0,36.84,0,73.67-0.02,110.51c0,1.99,0.14,4.05-0.28,5.97c-0.78,3.53-3.19,5.39-6.86,5.3
	c-3.7-0.09-5.82-2.2-6.48-5.73c-0.25-1.29-0.11-2.66-0.11-3.99c-0.01-41-0.01-82.01-0.01-123.01c0-1.82,0-3.63,0-5.83
	c-50.76,0-101.15,0-152.1,0c0,2.26,0,4.21,0,6.17c0,41.17-0.01,82.34,0.01,123.51c0,4.34-0.66,8.16-5.92,8.78
	c-4.1,0.48-6.74-1.4-7.57-5.5c-0.26-1.29-0.25-2.65-0.25-3.98c0-42.67,0.03-85.34,0-128.01c0-5.05,0.59-10.06,5.38-12.6
	c2.89-1.53,6.6-2.02,9.95-2.08c13.14-0.25,13.22-0.12,13.1-13.43c-0.15-17.33,0.42-34.72-0.84-51.97
	c-2.13-29.13-10.28-56.31-30.76-78.35c-7.7-8.29-16.85-14.47-28.55-16.64c-2.88,7.23-7.17,12.94-13.92,16.62
	c-14.12,7.68-32.06,2.09-39.28-12.32c-7.3-14.57-0.73-32.59,14.23-39.03c14.91-6.42,32.41,0.65,37.92,15.75
	c1.37,3.75,3.15,5.29,6.94,6.3c22.65,6.01,37.35,21.73,48.36,41.3c12.56,22.32,18.44,46.63,19.08,72.12
	c0.45,17.66,0.16,35.33,0.2,53c0,1.96,0,3.91,0,6.21c5.32,0,10.05,0,15.23,0c0.11-1.74,0.31-3.36,0.3-4.97
	c-0.18-33.17,0.1-66.34-0.76-99.49c-0.55-21.22-4.18-42.04-14.87-60.99c-6.82-12.09-16.61-21.61-26.52-31.01
	c-0.88-0.83-3.62-0.43-5.13,0.24c-14.3,6.25-30.65,0.62-37.55-13.08c-5.97-11.86-3.27-25.58,6.8-34.54
	c9.47-8.42,24.19-9.31,34.76-2.1c10.72,7.32,15.4,20.84,10.81,33c-1.42,3.77-0.92,5.88,1.95,8.52
	c16.65,15.34,30.92,32.65,36.18,55.14c3.73,15.95,6.66,32.39,7.26,48.71c1.16,31.46,0.42,62.99,0.46,94.5c0,1.95,0,3.91,0,6.13
	c5.19,0,9.77,0,14.76,0c0.1-1.74,0.28-3.34,0.28-4.94c0.01-78.51-0.03-157.01,0.1-235.52c0.01-3.75-1.06-5.44-4.53-6.88
	c-12.89-5.35-19.56-18.96-16.53-32.8C155.47,9.21,167.08,0.08,180.35,0c13.59-0.08,25.27,8.96,28.1,21.75
	c3.06,13.83-3.6,27.34-16.51,32.79c-3.15,1.33-4.54,2.66-4.53,6.36c0.13,78.84,0.1,157.68,0.1,236.52c0,1.32,0,2.64,0,4.35
	c4.87,0,9.45,0,14.71,0c0.08-1.82,0.25-3.74,0.25-5.65c0.07-31-0.31-62.01,0.32-93c0.48-24.07,3.79-47.76,14.88-69.7
	c7.03-13.92,17.38-25.16,28.53-35.73c2.85-2.71,3.76-4.83,2.21-8.93c-4.51-11.89-0.14-24.91,10.1-32.34
	c10.11-7.34,24.15-7.22,34.04,0.28c9.84,7.46,13.82,20.56,9.8,32.23c-4.06,11.77-15.65,19.95-28.08,19.17
	c-4.04-0.25-7.96-2.12-11.99-3.01c-1.37-0.3-3.44-0.46-4.28,0.3c-16.17,14.81-29.76,31.26-35.55,53.17
	c-4.95,18.71-6.24,37.74-6.43,56.89c-0.27,27.5-0.07,55-0.06,82.51c0,1.14,0.2,2.28,0.34,3.8c4.89,0,9.61,0,15.17,0
	c0-1.91,0-3.83,0-5.75c0.05-18.5-0.5-37.03,0.29-55.5c1.24-28.93,8.64-56.2,25.47-80.25c11.12-15.89,25.39-27.61,44.86-32.09
	c1.48-0.34,2.89-2.78,3.56-4.54c4.33-11.48,15.38-19.26,27.33-18.97c12.69,0.31,23.48,8.57,27.03,20.7
	c4.07,13.89-2.85,28.55-16.17,34.27c-13.4,5.75-29.11,0.42-36.21-12.32C306.74,145.74,306.02,144.07,304.94,141.85z M332.85,148.32
	c8.04-0.12,14.79-7.07,14.7-15.13c-0.09-8.04-7.01-14.91-15.01-14.88c-8.22,0.03-15.18,7.21-14.96,15.43
	C317.8,141.78,324.78,148.45,332.85,148.32z M180.49,43.27c8.33,0.06,14.96-6.43,15.06-14.75c0.1-8.07-6.72-15.02-14.84-15.12
	c-8.04-0.1-15,6.78-15.08,14.9C165.56,36.51,172.21,43.22,180.49,43.27z M43.6,133.27c-0.09-8.08-6.89-14.9-14.91-14.95
	c-8.17-0.06-15.24,7.13-15.07,15.34c0.17,7.99,7.16,14.76,15.19,14.69C36.81,148.28,43.69,141.26,43.6,133.27z M85.91,94.43
	c8.39-0.01,14.84-6.49,14.82-14.88c-0.02-8.26-6.7-15.05-14.84-15.1c-7.84-0.05-15.18,7.31-15.06,15.1
	C70.97,87.76,77.74,94.44,85.91,94.43z M260.48,79.35c-0.09,8.4,6.28,14.98,14.61,15.07c8.18,0.09,15.06-6.52,15.29-14.69
	c0.22-7.82-6.92-15.15-14.87-15.25C267.38,64.38,260.58,71.12,260.48,79.35z"/>
</svg>
