<?xml version="1.0" encoding="utf-8"?>
<!-- Generator: Adobe Illustrator 25.2.0, SVG Export Plug-In . SVG Version: 6.00 Build 0)  -->
<svg version="1.1" id="Layer_1" xmlns="http://www.w3.org/2000/svg" xmlns:xlink="http://www.w3.org/1999/xlink" x="0px" y="0px"
	 viewBox="0 0 60.3 66.5" style="enable-background:new 0 0 60.3 66.5;" xml:space="preserve">
<style type="text/css">
	.st0{fill:#FDD10E;}
</style>
<path class="st0" d="M54.3,0c-2.8,0-5.1,1.9-5.8,4.5H31.3C19.5,4.5,9.8,14.1,9.8,26v35.4l-7.3-7.3c-0.6-0.6-1.5-0.6-2.1,0
	s-0.6,1.5,0,2.1l9.8,9.8c0.3,0.3,0.7,0.4,1.1,0.4s0.8-0.1,1.1-0.4l9.8-9.8c0.6-0.6,0.6-1.5,0-2.1s-1.5-0.6-2.1,0l-7.3,7.3V26
	c0-10.2,8.3-18.5,18.5-18.5h17.2c0.7,2.6,3,4.5,5.8,4.5c3.3,0,6-2.7,6-6C60.3,2.7,57.6,0,54.3,0z M54.3,9c-1.7,0-3-1.3-3-3
	c0-1.7,1.3-3,3-3c1.7,0,3,1.3,3,3C57.3,7.7,56,9,54.3,9z"/>
</svg>
