<svg width="23" height="40" viewBox="0 0 23 40" fill="none" xmlns="http://www.w3.org/2000/svg">
<path d="M10.4393 39.0607C11.0251 39.6464 11.9749 39.6464 12.5607 39.0607L22.1066 29.5147C22.6924 28.9289 22.6924 27.9792 22.1066 27.3934C21.5208 26.8076 20.5711 26.8076 19.9853 27.3934L11.5 35.8787L3.01472 27.3934C2.42893 26.8076 1.47919 26.8076 0.893398 27.3934C0.307611 27.9792 0.307611 28.9289 0.893398 29.5147L10.4393 39.0607ZM13 1.5C13 0.671573 12.3284 0 11.5 0C10.6716 0 10 0.671573 10 1.5H13ZM13 38V1.5H10V38H13Z" fill="#FDD10E"/>
</svg>
