<svg width="28" height="28" viewBox="0 0 28 28" fill="none" xmlns="http://www.w3.org/2000/svg">
<g clip-path="url(#clip0_908_3835)">
<path fill-rule="evenodd" clip-rule="evenodd" d="M2.85162 24.9014C2.85162 25.1348 3.0408 25.3239 3.27415 25.3239H7.07697V23.2113C7.07697 22.5112 7.6445 21.9437 8.34457 21.9437H12.5699C13.27 21.9437 13.8375 22.5112 13.8375 23.2113V25.3239H17.6404C17.8738 25.3239 18.0629 25.1348 18.0629 24.9014V3.77464C18.0629 3.54128 17.8738 3.35211 17.6404 3.35211H3.27415C3.0408 3.35211 2.85162 3.54128 2.85162 3.77464V24.9014ZM3.27415 27.8591C1.64063 27.8591 0.316406 26.5349 0.316406 24.9014V3.77464C0.316406 2.14112 1.64063 0.816895 3.27415 0.816895H17.6404C19.2739 0.816895 20.5981 2.14112 20.5981 3.77464V24.9014C20.5981 25.0449 20.588 25.186 20.5682 25.3241H24.4009C24.6343 25.3241 24.8234 25.135 24.8234 24.9016V14.8202C24.8234 14.6789 24.7528 14.547 24.6353 14.4686L22.8527 13.2802C22.2702 12.8919 22.1128 12.1048 22.5012 11.5223C22.8894 10.9398 23.6765 10.7824 24.2589 11.1708L26.0415 12.3592C26.8645 12.9077 27.3587 13.8312 27.3587 14.8202V24.9016C27.3587 26.5351 26.0344 27.8593 24.4009 27.8593H18.4854C18.3702 27.8593 18.2584 27.8439 18.1521 27.815C17.986 27.8441 17.8149 27.8591 17.6404 27.8591H12.5699C11.8699 27.8591 11.3023 27.2916 11.3023 26.5915V24.4789H9.61218V26.5915C9.61218 27.2916 9.04465 27.8591 8.34457 27.8591H3.27415ZM5.38683 7.15492C5.38683 6.45485 5.95436 5.88732 6.65443 5.88732H7.49951C8.19958 5.88732 8.76711 6.45485 8.76711 7.15492C8.76711 7.855 8.19958 8.42253 7.49951 8.42253H6.65443C5.95436 8.42253 5.38683 7.855 5.38683 7.15492ZM6.65443 10.9577C5.95436 10.9577 5.38683 11.5253 5.38683 12.2253C5.38683 12.9254 5.95436 13.493 6.65443 13.493H7.49951C8.19958 13.493 8.76711 12.9254 8.76711 12.2253C8.76711 11.5253 8.19958 10.9577 7.49951 10.9577H6.65443ZM5.38683 17.2958C5.38683 16.5957 5.95436 16.0282 6.65443 16.0282H7.49951C8.19958 16.0282 8.76711 16.5957 8.76711 17.2958C8.76711 17.9958 8.19958 18.5634 7.49951 18.5634H6.65443C5.95436 18.5634 5.38683 17.9958 5.38683 17.2958ZM13.415 16.0282C12.7149 16.0282 12.1474 16.5957 12.1474 17.2958C12.1474 17.9958 12.7149 18.5634 13.415 18.5634H14.2601C14.9601 18.5634 15.5277 17.9958 15.5277 17.2958C15.5277 16.5957 14.9601 16.0282 14.2601 16.0282H13.415ZM12.1474 12.2253C12.1474 11.5253 12.7149 10.9577 13.415 10.9577H14.2601C14.9601 10.9577 15.5277 11.5253 15.5277 12.2253C15.5277 12.9254 14.9601 13.493 14.2601 13.493H13.415C12.7149 13.493 12.1474 12.9254 12.1474 12.2253ZM13.415 5.88732C12.7149 5.88732 12.1474 6.45485 12.1474 7.15492C12.1474 7.855 12.7149 8.42253 13.415 8.42253H14.2601C14.9601 8.42253 15.5277 7.855 15.5277 7.15492C15.5277 6.45485 14.9601 5.88732 14.2601 5.88732H13.415Z" fill="url(#paint0_linear_908_3835)"/>
</g>
<defs>
<linearGradient id="paint0_linear_908_3835" x1="0.316406" y1="14.3381" x2="27.3587" y2="14.3381" gradientUnits="userSpaceOnUse">
<stop stop-color="#1BB0BE"/>
<stop offset="1" stop-color="#2958FF"/>
</linearGradient>
<clipPath id="clip0_908_3835">
<rect width="27.0423" height="27.0423" fill="white" transform="translate(0.316406 0.816895)"/>
</clipPath>
</defs>
</svg>
