<svg width="28" height="28" viewBox="0 0 28 28" fill="none" xmlns="http://www.w3.org/2000/svg">
<g clip-path="url(#clip0_908_3829)">
<path fill-rule="evenodd" clip-rule="evenodd" d="M14.6044 3.44458C14.5295 3.38478 14.4366 3.35221 14.3408 3.35221C14.2449 3.35221 14.152 3.38478 14.0771 3.44458L5.20385 10.5432C5.15414 10.5829 5.11404 10.6333 5.08652 10.6906C5.05902 10.748 5.04481 10.8108 5.04498 10.8744V22.7375C5.04498 22.9708 5.23427 23.1601 5.46751 23.1601H10.1154V14.2868C10.1154 13.9506 10.249 13.6282 10.4867 13.3905C10.7244 13.1528 11.0468 13.0192 11.383 13.0192H17.2985C17.6347 13.0192 17.9571 13.1528 18.1948 13.3905C18.4326 13.6282 18.5661 13.9506 18.5661 14.2868V23.1601H23.214C23.326 23.1601 23.4335 23.1156 23.5128 23.0364C23.5921 22.9571 23.6365 22.8496 23.6365 22.7375V10.8727C23.6364 10.8094 23.6222 10.7469 23.5946 10.6899C23.5671 10.6328 23.5272 10.5827 23.4777 10.5432L14.6044 3.44458ZM12.4917 1.46541C13.0163 1.04561 13.6681 0.816895 14.3399 0.816895C15.0117 0.816895 15.6636 1.04561 16.1881 1.46541L25.0613 8.56401C25.7627 9.12512 26.1717 9.97528 26.1717 10.8744V22.7375C26.1717 23.5219 25.8601 24.2742 25.3054 24.8289C24.7507 25.3836 23.9984 25.6953 23.214 25.6953H17.2985C16.9623 25.6953 16.6399 25.5618 16.4022 25.324C16.1644 25.0863 16.0309 24.7638 16.0309 24.4277V15.5544H12.6506V24.4277C12.6506 24.7638 12.5171 25.0863 12.2793 25.324C12.0416 25.5618 11.7192 25.6953 11.383 25.6953H5.46751C4.68307 25.6953 3.93075 25.3836 3.37606 24.8289C2.82138 24.2742 2.50977 23.5219 2.50977 22.7375V10.8727C2.50977 9.97528 2.91878 9.12512 3.62019 8.56401L12.4917 1.46541Z" fill="url(#paint0_linear_908_3829)"/>
</g>
<defs>
<linearGradient id="paint0_linear_908_3829" x1="2.50977" y1="13.2561" x2="26.1717" y2="13.2561" gradientUnits="userSpaceOnUse">
<stop stop-color="#1BB0BE"/>
<stop offset="1" stop-color="#2958FF"/>
</linearGradient>
<clipPath id="clip0_908_3829">
<rect width="27.0423" height="27.0423" fill="white" transform="translate(0.820312 0.816895)"/>
</clipPath>
</defs>
</svg>
