<svg width="36" height="36" viewBox="0 0 36 36" fill="none" xmlns="http://www.w3.org/2000/svg">
<path d="M27.3103 14.8965H2.48276C1.11157 14.8965 0 16.0081 0 17.3792V33.5172C0 34.8884 1.11157 35.9999 2.48276 35.9999H27.3103C28.6815 35.9999 29.7931 34.8884 29.7931 33.5172V17.3792C29.7931 16.0081 28.6815 14.8965 27.3103 14.8965Z" fill="#547580"/>
<path d="M8.06861 31.0347H6.82723C6.48444 31.0347 6.20654 31.3126 6.20654 31.6554V32.8967C6.20654 33.2395 6.48444 33.5174 6.82723 33.5174H8.06861C8.41141 33.5174 8.6893 33.2395 8.6893 32.8967V31.6554C8.6893 31.3126 8.41141 31.0347 8.06861 31.0347Z" fill="#65DDB9"/>
<path d="M13.0344 31.0347H11.7931C11.4503 31.0347 11.1724 31.3126 11.1724 31.6554V32.8967C11.1724 33.2395 11.4503 33.5174 11.7931 33.5174H13.0344C13.3772 33.5174 13.6551 33.2395 13.6551 32.8967V31.6554C13.6551 31.3126 13.3772 31.0347 13.0344 31.0347Z" fill="#65DDB9"/>
<path d="M17.9998 31.0347H16.7584C16.4156 31.0347 16.1377 31.3126 16.1377 31.6554V32.8967C16.1377 33.2395 16.4156 33.5174 16.7584 33.5174H17.9998C18.3426 33.5174 18.6205 33.2395 18.6205 32.8967V31.6554C18.6205 31.3126 18.3426 31.0347 17.9998 31.0347Z" fill="#F3D55B"/>
<path d="M22.9661 31.0347H21.7247C21.3819 31.0347 21.104 31.3126 21.104 31.6554V32.8967C21.104 33.2395 21.3819 33.5174 21.7247 33.5174H22.9661C23.3089 33.5174 23.5868 33.2395 23.5868 32.8967V31.6554C23.5868 31.3126 23.3089 31.0347 22.9661 31.0347Z" fill="#F3D55B"/>
<path d="M16.7584 18.0002H13.0343C12.8696 18.0002 12.7118 17.9348 12.5954 17.8184C12.479 17.702 12.4136 17.5441 12.4136 17.3795C12.4136 17.2149 12.479 17.057 12.5954 16.9406C12.7118 16.8242 12.8696 16.7588 13.0343 16.7588H16.7584C16.923 16.7588 17.0809 16.8242 17.1973 16.9406C17.3137 17.057 17.3791 17.2149 17.3791 17.3795C17.3791 17.5441 17.3137 17.702 17.1973 17.8184C17.0809 17.9348 16.923 18.0002 16.7584 18.0002ZM15.517 20.4829H14.2756C14.111 20.4829 13.9532 20.4175 13.8367 20.3011C13.7203 20.1847 13.655 20.0269 13.655 19.8622C13.655 19.6976 13.7203 19.5397 13.8367 19.4233C13.9532 19.3069 14.111 19.2415 14.2756 19.2415H15.517C15.6816 19.2415 15.8395 19.3069 15.9559 19.4233C16.0723 19.5397 16.1377 19.6976 16.1377 19.8622C16.1377 20.0269 16.0723 20.1847 15.9559 20.3011C15.8395 20.4175 15.6816 20.4829 15.517 20.4829Z" fill="#65DDB9"/>
<path d="M36.0003 22.3262C36.0028 22.4098 35.9884 22.4931 35.9579 22.5709C35.9275 22.6488 35.8816 22.7198 35.8231 22.7795C35.7645 22.8392 35.6945 22.8864 35.6172 22.9184C35.54 22.9504 35.457 22.9664 35.3734 22.9655H32.9031C32.8194 22.9664 32.7365 22.9504 32.6592 22.9184C32.582 22.8864 32.5119 22.8392 32.4534 22.7795C32.3948 22.7198 32.349 22.6488 32.3185 22.5709C32.2881 22.4931 32.2736 22.4098 32.2762 22.3262L32.2948 21.7242L32.3941 18L32.8534 1.21037C32.8626 0.884757 32.9991 0.575714 33.2334 0.349472C33.4678 0.12323 33.7815 -0.00221164 34.1072 2.95219e-05H34.1693C34.495 -0.00221164 34.8087 0.12323 35.043 0.349472C35.2774 0.575714 35.4138 0.884757 35.4231 1.21037L36.0003 22.3262Z" fill="#464F5D"/>
<path d="M32.3941 18L32.2948 21.7241H29.7935V18H32.3941Z" fill="#393F4A"/>
<path d="M24.0707 7.16907C23.9775 7.16871 23.8856 7.14738 23.8018 7.10666C23.718 7.06593 23.6444 7.00686 23.5866 6.93382C22.5419 5.61205 21.2115 4.54397 19.6951 3.80967C18.1788 3.07537 16.5159 2.69392 14.8311 2.69392C13.1463 2.69392 11.4834 3.07537 9.9671 3.80967C8.45076 4.54397 7.12036 5.61205 6.07567 6.93382C5.97344 7.06288 5.82413 7.14605 5.66059 7.16502C5.49704 7.184 5.33266 7.13722 5.2036 7.035C5.07454 6.93277 4.99137 6.78346 4.9724 6.61992C4.95343 6.45637 5.0002 6.29199 5.10243 6.16293C6.26335 4.69449 7.74163 3.50791 9.42645 2.69215C11.1113 1.8764 12.9589 1.45264 14.8308 1.45264C16.7027 1.45264 18.5503 1.8764 20.2352 2.69215C21.92 3.50791 23.3983 4.69449 24.5592 6.16293C24.6316 6.25434 24.6768 6.36431 24.6896 6.48023C24.7024 6.59615 24.6823 6.71333 24.6316 6.81835C24.5809 6.92336 24.5016 7.01196 24.4028 7.07399C24.304 7.13602 24.1898 7.16897 24.0732 7.16907H24.0707Z" fill="#FF5364"/>
<path d="M21.1542 9.47809C21.0607 9.47818 20.9683 9.45712 20.884 9.4165C20.7998 9.37587 20.7258 9.31672 20.6676 9.24347C19.9703 8.36299 19.0828 7.65163 18.0717 7.16261C17.0606 6.67359 15.9519 6.41957 14.8288 6.41957C13.7056 6.41957 12.597 6.67359 11.5858 7.16261C10.5747 7.65163 9.68728 8.36299 8.98994 9.24347C8.88723 9.3714 8.73805 9.45345 8.57501 9.47171C8.41197 9.48996 8.24833 9.44292 8.11987 9.34088C7.99141 9.23883 7.90858 9.09008 7.88948 8.92714C7.87038 8.76419 7.91656 8.60032 8.01794 8.47133C8.83153 7.44452 9.86675 6.61497 11.0462 6.0447C12.2256 5.47443 13.5187 5.17822 14.8288 5.17822C16.1388 5.17822 17.4319 5.47443 18.6114 6.0447C19.7908 6.61497 20.826 7.44452 21.6396 8.47133C21.7122 8.56269 21.7575 8.67266 21.7705 8.78863C21.7834 8.90459 21.7634 9.02185 21.7127 9.12695C21.662 9.23206 21.5827 9.32075 21.484 9.38286C21.3852 9.44496 21.2709 9.47797 21.1542 9.47809Z" fill="#FF5364"/>
<path d="M18.2307 11.7932C18.1365 11.7933 18.0435 11.772 17.9588 11.7308C17.874 11.6896 17.7998 11.6297 17.7416 11.5555C17.3945 11.1151 16.9521 10.759 16.4475 10.5143C15.943 10.2695 15.3895 10.1423 14.8287 10.1423C14.2679 10.1423 13.7145 10.2695 13.2099 10.5143C12.7054 10.759 12.2629 11.1151 11.9158 11.5555C11.8143 11.6851 11.6654 11.769 11.502 11.7888C11.3385 11.8086 11.1739 11.7626 11.0444 11.661C10.9148 11.5595 10.8309 11.4106 10.8111 11.2472C10.7914 11.0837 10.8373 10.9191 10.9389 10.7896C11.4021 10.201 11.9929 9.72518 12.6667 9.39802C13.3405 9.07086 14.0797 8.90088 14.8287 8.90088C15.5778 8.90088 16.317 9.07086 16.9908 9.39802C17.6646 9.72518 18.2554 10.201 18.7186 10.7896C18.7904 10.8812 18.835 10.9911 18.8473 11.1067C18.8597 11.2224 18.8392 11.3393 18.7884 11.4439C18.7375 11.5485 18.6582 11.6368 18.5596 11.6986C18.4611 11.7603 18.3471 11.7931 18.2307 11.7932Z" fill="#FF5364"/>
</svg>
