<?xml version="1.0" encoding="utf-8"?>
<!-- Generator: Adobe Illustrator 25.2.0, SVG Export Plug-In . SVG Version: 6.00 Build 0)  -->
<svg version="1.1" id="Layer_1" xmlns="http://www.w3.org/2000/svg" xmlns:xlink="http://www.w3.org/1999/xlink" x="0px" y="0px"
	 viewBox="0 0 133.6 39.5" style="enable-background:new 0 0 133.6 39.5;" xml:space="preserve">
<style type="text/css">
	.st0{fill:#FDD10E;}
</style>
<path class="st0" d="M131,27.4l-7,7V1.5V0h-1.5H11H9.5v1.5v32.9l-7-7c-0.6-0.6-1.5-0.6-2.1,0c-0.6,0.6-0.6,1.5,0,2.1l9.6,9.5
	c0.6,0.6,1.5,0.6,2.1,0l9.5-9.5c0.6-0.6,0.6-1.5,0-2.1c-0.6-0.6-1.5-0.6-2.1,0l-7,7V3H121v31.4l-7-7c-0.6-0.6-1.5-0.6-2.1,0
	c-0.6,0.6-0.6,1.5,0,2.1l9.6,9.5c0.6,0.6,1.5,0.6,2.1,0l9.5-9.5c0.6-0.6,0.6-1.5,0-2.1C132.6,26.8,131.6,26.8,131,27.4z"/>
</svg>
