<?xml version="1.0" encoding="utf-8"?>
<!-- Generator: Adobe Illustrator 25.2.0, SVG Export Plug-In . SVG Version: 6.00 Build 0)  -->
<svg version="1.1" id="Layer_1" xmlns="http://www.w3.org/2000/svg" xmlns:xlink="http://www.w3.org/1999/xlink" x="0px" y="0px"
	 viewBox="0 0 130.3 66.5" style="enable-background:new 0 0 130.3 66.5;" xml:space="preserve">
<style type="text/css">
	.st0{fill:#FDD10E;}
</style>
<path class="st0" d="M127.8,54.1l-7.3,7.3V26c0-11.9-9.6-21.5-21.5-21.5H11.8C11.1,1.9,8.8,0,6,0C2.7,0,0,2.7,0,6s2.7,6,6,6
	c2.8,0,5.1-1.9,5.8-4.5H99c10.2,0,18.5,8.3,18.5,18.5v35.4l-7.3-7.3c-0.6-0.6-1.5-0.6-2.1,0s-0.6,1.5,0,2.1l9.8,9.8
	c0.3,0.3,0.7,0.4,1.1,0.4s0.8-0.1,1.1-0.4l9.8-9.8c0.6-0.6,0.6-1.5,0-2.1S128.3,53.5,127.8,54.1z M6,9C4.3,9,3,7.7,3,6s1.3-3,3-3
	c1.7,0,3,1.3,3,3S7.7,9,6,9z"/>
</svg>
