<svg width="14" height="14" viewBox="0 0 14 14" fill="none" xmlns="http://www.w3.org/2000/svg">
<path opacity="0.4" d="M7.36696 1.25007L8.80762 4.14519C8.91376 4.35494 9.11634 4.50061 9.34997 4.53298L12.586 5.00427C12.7749 5.03082 12.9465 5.13052 13.0623 5.28265C13.1769 5.43285 13.226 5.62318 13.1982 5.81027C13.1756 5.96565 13.1024 6.10937 12.9905 6.21942L10.6457 8.4924C10.4742 8.65101 10.3965 8.88601 10.4379 9.11584L11.0152 12.3113C11.0767 12.6972 10.8211 13.061 10.4379 13.1342C10.28 13.1594 10.1182 13.1329 9.97581 13.0604L7.08931 11.5565C6.87509 11.4484 6.62204 11.4484 6.40781 11.5565L3.52131 13.0604C3.16665 13.2488 2.7272 13.1206 2.52981 12.771C2.45667 12.6318 2.43078 12.4732 2.45473 12.3185L3.03203 9.12231C3.07345 8.89313 2.99514 8.65684 2.82428 8.49823L0.479483 6.22654C0.200541 5.95723 0.192127 5.51377 0.460714 5.23474C0.466539 5.22892 0.473011 5.22244 0.479483 5.21597C0.590801 5.10268 0.737067 5.03082 0.894984 5.01204L4.13097 4.5401C4.36396 4.50708 4.56654 4.36271 4.67332 4.15166L6.06221 1.25007C6.18582 1.00147 6.44212 0.846749 6.72041 0.853223H6.80713C7.04854 0.882355 7.25888 1.0319 7.36696 1.25007Z" fill="#FF833E"/>
<path d="M6.73007 11.4759C6.60473 11.4798 6.48263 11.5134 6.3728 11.5737L3.50041 13.0741C3.14895 13.2418 2.72837 13.1117 2.53132 12.7756C2.45831 12.6383 2.43182 12.4809 2.45637 12.3268L3.03008 9.13742C3.06884 8.90558 2.99131 8.66986 2.82269 8.50667L0.476843 6.23557C0.198391 5.96294 0.193222 5.51545 0.46586 5.23634C0.469736 5.23245 0.472967 5.22922 0.476843 5.22598C0.587966 5.11589 0.731391 5.04336 0.8858 5.02069L4.1245 4.54407C4.35902 4.51428 4.56253 4.36792 4.6659 4.15551L6.07367 1.2174C6.2074 0.98038 6.46389 0.839206 6.73524 0.8541C6.73007 1.04643 6.73007 11.3451 6.73007 11.4759Z" fill="#FF833E"/>
</svg>
