<svg width="14" height="14" viewBox="0 0 14 14" fill="none" xmlns="http://www.w3.org/2000/svg">
<path d="M11.0944 8.50126C10.9268 8.66367 10.8498 8.89856 10.888 9.12891L11.4632 12.3124C11.5117 12.5823 11.3979 12.8553 11.172 13.0113C10.9507 13.173 10.6563 13.1924 10.415 13.063L7.54916 11.5683C7.44951 11.5153 7.33886 11.4868 7.22563 11.4836H7.05028C6.98945 11.4926 6.92992 11.512 6.87557 11.5418L4.0091 13.0436C3.86739 13.1148 3.70692 13.14 3.54969 13.1148C3.16663 13.0423 2.91104 12.6774 2.97381 12.2924L3.54969 9.10885C3.58786 8.87656 3.51086 8.64038 3.34328 8.47538L1.00675 6.21067C0.811336 6.02109 0.743394 5.73638 0.832688 5.4795C0.919394 5.22326 1.14069 5.03626 1.40792 4.9942L4.62381 4.52767C4.86839 4.50244 5.08322 4.35362 5.19322 4.13362L6.61028 1.22832C6.64392 1.16362 6.68728 1.10409 6.73969 1.05362L6.79792 1.00832C6.82833 0.974674 6.86328 0.946851 6.9021 0.924204L6.97263 0.898321L7.08263 0.853027H7.35504C7.59833 0.878263 7.81251 1.02385 7.92445 1.24126L9.36028 4.13362C9.46381 4.3452 9.66504 4.49209 9.89734 4.52767L13.1132 4.9942C13.385 5.03303 13.6121 5.22067 13.702 5.4795C13.7868 5.73897 13.7137 6.02367 13.5144 6.21067L11.0944 8.50126Z" fill="#FF833E"/>
</svg>
