<svg width="22" height="22" viewBox="0 0 22 22" fill="none" xmlns="http://www.w3.org/2000/svg">
<path d="M20.9111 4.57746V1.14621C20.9111 0.672098 20.5281 0.289062 20.054 0.289062H1.94686C1.47276 0.289062 1.08972 0.672098 1.08972 1.14621V4.57746C0.642399 4.60424 0.286149 4.97656 0.286149 5.43192V8.9596C0.284434 9.60793 0.41571 10.2497 0.671864 10.8453C0.787042 11.1185 0.929007 11.3757 1.08972 11.6194V20.8605C1.08972 21.3319 1.47276 21.7176 1.94686 21.7176H20.054C20.5281 21.7176 20.9111 21.3346 20.9111 20.8605V11.6194C21.0744 11.3751 21.2143 11.1159 21.329 10.8453C21.5835 10.248 21.7147 9.61317 21.7147 8.9596V5.43192C21.7147 4.97656 21.3585 4.60424 20.9111 4.57746ZM3.01829 2.21763H18.9826V4.57478H3.01829V2.21763ZM12.7147 19.7917H9.28615V17.0033H12.7147V19.7917ZM18.9826 19.7917H14.429V16.1462C14.429 15.6721 14.046 15.2891 13.5719 15.2891H8.42901C7.9549 15.2891 7.57186 15.6721 7.57186 16.1462V19.7917H3.01829V13.3042C3.09597 13.3417 3.17633 13.3792 3.25936 13.4114C3.85669 13.6632 4.49151 13.7891 5.14508 13.7891C5.79865 13.7891 6.43079 13.6632 7.03079 13.4114C7.40044 13.256 7.74865 13.0578 8.0674 12.8194C8.07276 12.8167 8.07811 12.8167 8.08347 12.8194C8.40321 13.0588 8.7514 13.2577 9.12008 13.4114C9.7174 13.6632 10.3522 13.7891 11.0058 13.7891C11.6594 13.7891 12.2915 13.6632 12.8915 13.4114C13.2611 13.256 13.6094 13.0578 13.9281 12.8194C13.9335 12.8167 13.9388 12.8167 13.9442 12.8194C14.2639 13.0588 14.6121 13.2577 14.9808 13.4114C15.5781 13.6632 16.2129 13.7891 16.8665 13.7891C17.5201 13.7891 18.1522 13.6632 18.7522 13.4114C18.8326 13.3766 18.9129 13.3417 18.9933 13.3042V19.7917H18.9826ZM19.7861 8.9596C19.7861 10.5614 18.4736 11.8605 16.8585 11.8605C15.7656 11.8605 14.812 11.2685 14.3085 10.39C14.2308 10.256 14.0915 10.173 13.9361 10.173H13.9201C13.7674 10.173 13.6254 10.256 13.5478 10.39C13.2908 10.8381 12.9197 11.2103 12.4723 11.4686C12.0249 11.7268 11.5171 11.8621 11.0004 11.8605C9.91026 11.8605 8.95936 11.2712 8.45579 10.3953C8.37544 10.2587 8.23079 10.173 8.07276 10.173C7.91472 10.173 7.7674 10.2587 7.68972 10.3953C7.43124 10.8418 7.05971 11.2122 6.61252 11.4695C6.16534 11.7267 5.65828 11.8615 5.1424 11.8605C3.52722 11.8605 2.21472 10.5614 2.21472 8.9596V6.51674C2.21472 6.50871 2.22008 6.50335 2.22811 6.50335H19.7728C19.7808 6.50335 19.7861 6.50871 19.7861 6.51674V8.9596Z" fill="#2958FF"/>
</svg>
