<svg width="36" height="36" viewBox="0 0 36 36" fill="none" xmlns="http://www.w3.org/2000/svg">
<path d="M32.6601 35.4727H3.33984C1.78657 35.4727 0.527344 34.2134 0.527344 32.6602V3.33994C0.527344 1.78667 1.78657 0.527447 3.33984 0.527447H32.6601C34.2133 0.527447 35.4726 1.78667 35.4726 3.33994V32.6602C35.4726 34.2134 34.2133 35.4727 32.6601 35.4727Z" fill="#EAEAEA"/>
<path d="M31.0686 5.71225H4.93066V21.9064L8.05583 21.9074V26.098H10.1866V30.2886H25.8126V26.098H27.9434V21.9064H31.0686V5.71225Z" fill="#2958FF"/>
<path d="M32.6319 0.527447H30.9272C32.4963 0.527447 33.7684 1.79947 33.7684 3.36848V32.6316C33.7684 34.2006 32.4963 35.4727 30.9272 35.4727H32.6319C34.201 35.4727 35.4729 34.2006 35.4729 32.6316V3.36848C35.4729 1.79947 34.201 0.527447 32.6319 0.527447Z" fill="#CBCBCB"/>
<path d="M4.93066 13.6665H31.0686V11.3947H4.93066V13.6665Z" fill="#FDD10E"/>
<path d="M31.0686 11.3945H4.93066V5.71239H31.0686V11.3945Z" fill="url(#paint0_linear_788_25525)"/>
<path d="M33.4835 3.36838C33.4835 3.83912 33.1019 4.2207 32.6311 4.2207C32.1604 4.2207 31.7788 3.83912 31.7788 3.36838C31.7788 2.89764 32.1604 2.51605 32.6311 2.51605C33.1019 2.51605 33.4835 2.89764 33.4835 3.36838Z" fill="black"/>
<path d="M2.51611 3.36838C2.51611 3.83912 2.8977 4.2207 3.36844 4.2207C3.83918 4.2207 4.22076 3.83912 4.22076 3.36838C4.22076 2.89764 3.83918 2.51605 3.36844 2.51605C2.8977 2.51605 2.51611 2.89764 2.51611 3.36838Z" fill="black"/>
<path d="M33.4835 32.6316C33.4835 32.1608 33.1019 31.7792 32.6311 31.7792C32.1604 31.7792 31.7788 32.1608 31.7788 32.6316C31.7788 33.1023 32.1604 33.4839 32.6311 33.4839C33.1019 33.4839 33.4835 33.1023 33.4835 32.6316Z" fill="black"/>
<path d="M2.51611 32.6316C2.51611 32.1608 2.8977 31.7792 3.36844 31.7792C3.83918 31.7792 4.22076 32.1608 4.22076 32.6316C4.22076 33.1023 3.83918 33.4839 3.36844 33.4839C2.8977 33.4839 2.51611 33.1023 2.51611 32.6316Z" fill="black"/>
<defs>
<linearGradient id="paint0_linear_788_25525" x1="4.93066" y1="8.55346" x2="31.0686" y2="8.55346" gradientUnits="userSpaceOnUse">
<stop stop-color="#1BB0BE"/>
<stop offset="1" stop-color="#2958FF"/>
</linearGradient>
</defs>
</svg>
