<svg width="24" height="24" viewBox="0 0 24 24" fill="none" xmlns="http://www.w3.org/2000/svg">
<path fill-rule="evenodd" clip-rule="evenodd" d="M2.25 12C2.25 6.61522 6.61522 2.25 12 2.25C17.3848 2.25 21.75 6.61522 21.75 12C21.75 17.3848 17.3848 21.75 12 21.75C6.61522 21.75 2.25 17.3848 2.25 12ZM12 0C5.37258 0 0 5.37258 0 12C0 18.6275 5.37258 24 12 24C18.6275 24 24 18.6275 24 12C24 5.37258 18.6275 0 12 0ZM9.56793 7.84075C9.31799 7.6908 9 7.87083 9 8.16232V15.8378C9 16.1292 9.31799 16.3092 9.56793 16.1592L15.9641 12.3216C16.2068 12.1759 16.2068 11.8241 15.9641 11.6784L9.56793 7.84075Z" fill="url(#paint0_linear_1066_285)"/>
<defs>
<linearGradient id="paint0_linear_1066_285" x1="24" y1="11.9351" x2="-7.03978e-08" y2="11.9351" gradientUnits="userSpaceOnUse">
<stop stop-color="#EAEAEA"/>
<stop offset="1" stop-color="white"/>
</linearGradient>
</defs>
</svg>
